<?xml version="1.0" encoding="UTF-8" standalone="no"?>
<svg
   xmlns="http://www.w3.org/2000/svg"
   style="fill:currentColor"
   height="47"
   width="268"
   id="svg14"
   version="1.1"
   viewBox="0 0 268 47.000001"
fill="currentColor">

  <defs
     id="defs18" />
  <path
     id="path2"
     d="m 175.2,17.360005 a 12.52,12.52 0 1 0 12.51,12.52 12.52,12.52 0 0 0 -12.51,-12.52 z m 7.44,12.84 a 7.5025346,7.5025346 0 0 1 -15,-0.39 7.37,7.37 0 0 1 1.4,-4.36 1.15,1.15 0 0 1 1.07,-0.55 c 0,0 0.06,0.11 0.15,0.33 0.09,0.22 0.22,0.32 0.35,0.32 0.13,0 0.38,-0.2 0.57,-0.62 a 2.78,2.78 0 0 1 0.72,-1.1 3,3 0 0 1 0.77,-0.44 h 0.28 c 0.13,0 0.19,-0.08 0.19,-0.14 a 0.5,0.5 0 0 0 -0.22,-0.38 6.34,6.34 0 0 1 2.39,-0.4 6,6 0 0 1 1.34,0.12 c 0.64,0.18 1.14,0.49 1.1,0.69 -0.04,0.2 -0.32,0.31 -0.66,0.26 a 1.86,1.86 0 0 0 -1.25,0.53 c -0.35,0.34 -0.59,0.75 -0.53,0.9 a 0.85,0.85 0 0 0 0.28,0.34 0.82,0.82 0 0 1 0.25,0.21 0.2,0.2 0 0 0 0.25,0.06 0.45,0.45 0 0 0 0.13,-0.37 0.78,0.78 0 0 1 0.35,-0.56 c 0.2,-0.16 0.36,-0.07 0.36,0.2 a 1.64,1.64 0 0 1 -0.26,0.78 2.81,2.81 0 0 1 -0.77,0.54 c -0.29,0.14 -1.19,0 -1.44,0.29 -0.25,0.29 0.31,0.42 0,0.58 -0.31,0.16 -0.38,0 -0.48,0.19 -0.1,0.19 -0.14,0.49 0,0.62 0.14,0.13 0.72,-0.08 0.75,-0.27 0.03,-0.19 0.22,-0.23 0.37,-0.2 a 0.56,0.56 0 0 0 0.45,-0.12 0.33,0.33 0 0 1 0.42,0 1.07,1.07 0 0 1 0.34,0.46 c 0.07,0.16 0.1,0.28 -0.12,0.41 -0.22,0.13 -0.06,0.14 0,0.18 a 0.67,0.67 0 0 0 0.44,0 0.66,0.66 0 0 0 0.17,-0.33 c 0,-0.08 0.18,0 0.26,-0.06 0.08,-0.06 0,-0.09 -0.11,-0.28 -0.11,-0.19 -0.4,-0.25 -0.45,-0.56 0,-0.11 0.28,-0.15 0.55,-0.14 a 0.76,0.76 0 0 1 0.62,0.65 c 0.06,0.35 0.2,0.64 0.31,0.64 0.11,0 0.12,0.59 -0.11,0.65 a 2.14,2.14 0 0 1 -1.07,0 16.42,16.42 0 0 0 -1.73,-0.39 c -0.28,-0.05 -0.46,-0.23 -0.68,-0.25 a 1.49,1.49 0 0 0 -0.9,0.37 1.39,1.39 0 0 0 -1,0.91 2.13,2.13 0 0 0 0.07,1.05 1.32,1.32 0 0 0 0.88,0.59 3.06,3.06 0 0 1 1.34,1.07 14.64,14.64 0 0 1 0.37,2 2.62,2.62 0 0 0 0.51,1.46 1.32,1.32 0 0 0 1.4,-0.65 12.15,12.15 0 0 0 0.3,-2.5 c 0.08,-0.3 1,-1 1,-1.28 a 1.42,1.42 0 0 0 -0.06,-0.66 4.3,4.3 0 0 1 -0.39,-1.2 c 0.05,0 0.24,0.25 0.39,0.62 a 0.71,0.71 0 0 0 0.81,0.48 c 0.28,-0.11 0.34,-0.54 0.11,-1 a 10.72,10.72 0 0 1 2,0 2.49,2.49 0 0 1 1.21,0.42 0.46,0.46 0 0 1 0.21,0.28 z m 10.06,-3.15 a 3,3 0 0 1 0.88,-2.52 3,3 0 0 1 2.09,-0.76 2.93,2.93 0 0 1 2.08,0.76 3.08,3.08 0 0 1 0.89,2.52 v 5.61 a 3,3 0 0 1 -0.89,2.51 3,3 0 0 1 -2.08,0.77 2.91,2.91 0 0 1 -2.09,-0.77 3.09,3.09 0 0 1 -0.88,-2.51 z m 4.23,-0.25 a 1.27,1.27 0 0 0 -0.36,-1 1.28,1.28 0 0 0 -2.19,1 v 6.08 a 1.29,1.29 0 0 0 0.35,1 1.41,1.41 0 0 0 1.84,0 1.29,1.29 0 0 0 0.36,-1 z m 5.92,-2.86 a 4,4 0 0 1 2.24,0.57 3.08,3.08 0 0 1 1.08,2.72 2.54,2.54 0 0 1 -0.51,1.85 2.65,2.65 0 0 1 -0.64,0.55 1.7,1.7 0 0 1 0.81,0.74 2.44,2.44 0 0 1 0.34,1.49 v 0.91 a 2.94,2.94 0 0 1 -1,2.47 3.22,3.22 0 0 1 -2,0.56 h -2.57 v -11.83 h 2.26 z m -0.59,4.94 h 0.8 a 1.38,1.38 0 0 0 1.09,-0.43 1.65,1.65 0 0 0 0.33,-1 v -0.73 a 1.21,1.21 0 0 0 -0.33,-0.81 1.49,1.49 0 0 0 -1.1,-0.39 h -0.79 z m 0,5.41 H 203 a 1.35,1.35 0 0 0 1.15,-0.53 2.25,2.25 0 0 0 0.31,-1.19 v -0.56 a 1.56,1.56 0 0 0 -0.45,-1.31 1.3,1.3 0 0 0 -0.9,-0.31 h -0.86 v 3.9 z m 5.68,-7.24 a 3,3 0 0 1 0.89,-2.52 3.24,3.24 0 0 1 4.17,0 3.1,3.1 0 0 1 0.88,2.52 v 5.61 a 2.87,2.87 0 0 1 -3,3.28 2.89,2.89 0 0 1 -2.08,-0.77 3.07,3.07 0 0 1 -0.89,-2.51 z m 4.23,-0.25 a 1.21,1.21 0 0 0 -1.27,-1.37 1.32,1.32 0 0 0 -0.92,0.34 1.29,1.29 0 0 0 -0.36,1 v 6.11 a 1.27,1.27 0 0 0 0.36,1 1.32,1.32 0 0 0 0.92,0.34 1.27,1.27 0 0 0 0.91,-0.34 1.29,1.29 0 0 0 0.36,-1 z m 8.72,-2.86 v 1.3 l -3.54,9 h 3.46 v 1.54 h -5.23 v -1.49 l 3.42,-8.83 h -3.23 v -1.52 z m 3.99,0 a 3.43,3.43 0 0 1 2.91,0.93 3.21,3.21 0 0 1 0.62,2.07 v 0.94 a 2.94,2.94 0 0 1 -0.62,1.88 2.29,2.29 0 0 1 -0.9,0.61 l 1.86,5.45 H 227 l -1.63,-5.1 h -1 v 5.1 h -1.69 v -11.87 h 2.2 z m -0.52,5.2 h 1 a 1.37,1.37 0 0 0 1,-0.38 1.25,1.25 0 0 0 0.36,-1.08 v -0.8 a 1.6,1.6 0 0 0 -0.39,-1.08 1.34,1.34 0 0 0 -1.1,-0.31 h -0.89 v 3.69 z m 5.82,-5.2 h 5 v 1.6 h -3.32 v 3.48 h 2.94 v 1.52 h -2.94 v 3.62 h 3.37 v 1.6 h -5.07 z m 9.82,11.82 h -1.5 l -2.5,-11.82 h 1.87 l 1.36,8.17 h 0.07 l 1.41,-8.17 h 1.77 z m 7,0 -0.56,-2.53 h -2.14 l -0.56,2.53 H 242 l 2.58,-11.82 h 1.49 l 2.58,11.82 z m -1.68,-8.53 -0.89,4.49 h 1.79 z m 8.86,-3.29 v 1.6 h -2.1 v 10.22 h -1.69 v -10.22 h -2.1 v -1.6 z m 1.35,0 h 5 v 1.6 h -3.32 v 3.48 h 2.93 v 1.52 h -2.93 v 3.62 h 3.37 v 1.6 h -5.07 z m 8.36,0 v 10.22 h 3.58 v 1.6 h -5.27 v -11.82 z m -71.02,-2.38 v -4.09 h 3.33 a 1.11,1.11 0 0 1 0.85,0.33 1.4,1.4 0 0 1 0.31,1 1.42,1.42 0 0 1 -0.31,1 1.13,1.13 0 0 1 -0.87,0.32 h -2.7 v 1.48 z m 0.61,-2 h 2.68 a 0.52,0.52 0 0 0 0.42,-0.18 0.86,0.86 0 0 0 0.16,-0.58 0.83,0.83 0 0 0 -0.16,-0.57 0.5,0.5 0 0 0 -0.42,-0.19 h -2.68 z m 7.28,2.06 a 6.35,6.35 0 0 1 -1.77,-0.17 0.85,0.85 0 0 1 -0.63,-0.62 5.25,5.25 0 0 1 -0.1,-1.31 5,5 0 0 1 0.1,-1.3 0.93,0.93 0 0 1 0.65,-0.64 6.45,6.45 0 0 1 1.77,-0.17 6.25,6.25 0 0 1 1.77,0.17 1,1 0 0 1 0.65,0.62 5.31,5.31 0 0 1 0.1,1.31 5,5 0 0 1 -0.1,1.3 0.91,0.91 0 0 1 -0.63,0.63 6.3,6.3 0 0 1 -1.81,0.18 z m 0,-0.54 a 3.69,3.69 0 0 0 1.67,-0.2 c 0.17,-0.14 0.25,-0.59 0.25,-1.34 0,-0.75 -0.08,-1.21 -0.25,-1.35 a 7,7 0 0 0 -3.33,0 c -0.17,0.14 -0.25,0.59 -0.25,1.35 0,0.76 0.08,1.2 0.25,1.34 a 4,4 0 0 0 1.66,0.2 z m 5.57,-0.11 h 0.06 l 1.49,-3.48 h 0.52 l 1.49,3.48 H 210 l 1.56,-3.48 h 0.64 l -1.85,4.07 h -0.77 l -1.42,-3.26 -1.4,3.26 H 206 l -1.85,-4.07 h 0.63 z m 6.84,-3.5 h 3.9 v 0.55 h -3.3 v 1.19 H 217 v 0.55 h -3.19 v 1.24 h 3.3 v 0.54 h -3.9 z m 5.06,0 h 3.67 a 1,1 0 0 1 0.79,0.36 1.47,1.47 0 0 1 0.28,0.95 1.42,1.42 0 0 1 -0.15,0.76 0.74,0.74 0 0 1 -0.36,0.28 1,1 0 0 1 0.34,0.23 0.69,0.69 0 0 1 0.19,0.5 v 1 h -0.61 v -1 a 0.41,0.41 0 0 0 -0.18,-0.34 0.79,0.79 0 0 0 -0.47,-0.14 h -2.86 v 1.47 h -0.61 v -4.07 z m 0.61,2.05 h 2.8 a 0.86,0.86 0 0 0 0.48,-0.1 1,1 0 0 0 0,-1.28 0.86,0.86 0 0 0 -0.5,-0.12 h -2.8 v 1.5 z m 5.24,-2.05 H 228 v 0.55 h -3.3 v 1.19 h 3.19 v 0.55 h -3.19 v 1.24 h 3.3 v 0.54 h -3.9 z m 5.08,0 h 3.42 a 1.45,1.45 0 0 1 1,0.28 2.66,2.66 0 0 1 0.41,1.76 2.68,2.68 0 0 1 -0.41,1.76 1.47,1.47 0 0 1 -1,0.27 h -3.42 z m 0.6,3.55 h 2.82 a 0.71,0.71 0 0 0 0.67,-0.3 3,3 0 0 0 0.17,-1.2 3.06,3.06 0 0 0 -0.17,-1.19 0.72,0.72 0 0 0 -0.67,-0.31 h -2.82 z m 12.97,-0.66 a 1.18,1.18 0 0 1 -0.33,0.91 1.38,1.38 0 0 1 -1,0.29 h -3.28 v -4.09 h 3.14 a 1.4,1.4 0 0 1 1,0.3 1.09,1.09 0 0 1 0.33,0.85 0.78,0.78 0 0 1 -0.47,0.8 0.89,0.89 0 0 1 0.42,0.29 1.3,1.3 0 0 1 0.19,0.65 z m -0.73,-1.72 a 0.61,0.61 0 0 0 -0.14,-0.44 0.69,0.69 0 0 0 -0.54,-0.18 h -2.52 v 1.16 h 2.52 a 0.76,0.76 0 0 0 0.54,-0.14 0.48,0.48 0 0 0 0.14,-0.4 z m -3.21,1.1 v 1.28 h 2.65 a 0.8,0.8 0 0 0 0.53,-0.17 0.6,0.6 0 0 0 0.17,-0.47 0.66,0.66 0 0 0 -0.18,-0.47 0.73,0.73 0 0 0 -0.52,-0.18 h -2.65 z m 9.21,-2.27 h 0.82 l -2.41,2.46 v 1.63 h -0.6 v -1.63 l -2.41,-2.46 h 0.82 l 1.9,1.95 z m -234.88,29.39 h 8.66 v -14.73 l -8.66,-12.87 z" />
  <path
     id="path4"
     d="m 0.03,9.6000055 h 13.09 v -0.01 5.5899995 l 8.66,12.77 V 9.6000055 H 34.94 L 34.9,0.88000527 H 0 Z m 77.46,28.1499995 -6.13,-9.46 0.03,18.71 h 20.5 v -8.83 h -14.4 z" />
  <path
     id="path6"
     d="m 77.5,20.160005 h 14.36 v -8.82 H 71.33 l 0.02,12.75 6.14,9.48 v -0.01 l 14.4,0.05 v -8.82 H 77.53 Z m 16.93,26.84 h 5.74 v -11.54 l -5.75,-8.88 z m 15.75,-28.02 -0.16,0.23 v 14.76 l -14.7,-22.63 H 94.4 l 0.01,11.05 12.29,18.96 -0.01,0.01 3.65,5.64 h 5.42 v -36.61 z m 17.33,28.02 h 6.11 v -15.08 l -6.11,-8.41 z" />
  <path
     id="path8"
     d="m 142.87,16.650005 v -6.07 h -24.61 v 6.07 h 9.25 v 0.01 h 0.01 l -0.01,3.89 6.11,8.51 v -12.41 z m -85.14,-5.25 h -6.17 v 13.08 l 6.17,9.51 z" />
  <path
     id="path10"
     d="m 58.65,38.170005 h -0.9 l -0.02,0.01 v -0.01 l -6.17,-9.51 v 18.34 h 17.32 v -8.83 z" />
  <path
     id="path12"
     d="m 57.73,38.180005 0.02,-0.01 h -0.02 z m -24.89,-16.37 2.91,8.55 -5.67,16.5 h -5.79 z m 16.17,25.12 h -5.79 l -1.18,-3.5 -8.29,-24.3 2.88,-8.45 z m -42.58,-33.99 v 12.64 l -6.43,-8.43 v -4.21 z m -6.43,8.01 6.43,8.45 v 17.56 H 0 Z" />
</svg>
